<svg width="1440" height="2086" viewBox="0 0 1440 2086" fill="none" xmlns="http://www.w3.org/2000/svg">
<path d="M97.7285 198.114L0 123.354V2085.81C0 2085.81 43.1281 2082.66 55.8449 2078.33C55.8449 2078.33 427.44 2017.7 436.787 2014.78L823.712 1951.24C831.69 1951.24 899.501 1947.5 899.501 1947.5H945.374H1027.15H1079L1188.7 1962.45L1230.58 1977.4L1264.49 1988.62L1312.35 2003.57L1352.24 2022.26L1386.15 2040.95L1416.07 2059.64L1440 2074.59V0H1404.1L1336.29 18.69L1274.46 41.118L1220.61 63.546L1150.8 89.7121L1086.98 119.616L1005.21 156.996L947.368 179.424L863.601 213.066L779.834 242.97L482.659 299.04H386.925H333.075L262 285L187.479 254.184L149.584 231.756L97.7285 198.114Z" fill="#FFFAF3"/>
</svg>
