<svg width="1439" height="604" viewBox="0 0 1439 604" fill="none" xmlns="http://www.w3.org/2000/svg">
<path d="M321.389 25.671C175.788 -20.8774 28.7349 62.2129 0.550258 83.0343L0.559574 420.004L59.4039 467.427L93.9169 492.738L135.518 522.406L195.255 558.711L256.271 583.988L348.176 603.642L454.144 601.508L525.481 593.07L608.634 575.392L691.267 556.725L794.323 534.146L888.68 501.739L991.304 457.665L1078.05 419.91L1145.46 390.047L1210.84 359.225L1292.68 325.571L1368.59 296.036L1409.41 286.713H1438.22L1438.21 83.0915C1401.86 51.5236 1298.02 -5.94789 1152.93 0.500012C971.562 8.55989 968.057 100.443 884.52 54.5012C800.982 8.5599 687.935 -13.4906 556.248 49.6654C500.174 76.5584 505.809 84.6299 321.389 25.671Z" fill="#FAFBFF"/>
</svg>
